# xmcd
#
# Track frame offsets: 
#        150
#        14610
#        24590
#        44670
#        56965
#        67512
#        79835
#        96155
#        111285
#        123157
#        138527
#        145117
#        162457
#        179492
#        194130
#        212002
#        232687
#        244437
#        260225
#        281422
#
# Disc length: 4098 seconds
#
# Revision: 1
# Processed by: cddbd v1.5.2PL0 Copyright (c) Steve Scherf et al.
# Submitted via: ExactAudioCopy v1.2
#
DISCID=31100014
DTITLE=Glen Campbell - Greatest Hits
DYEAR=1900
DGENRE=
TTITLE0=Rhinestone Cowboy
TTITLE1=Gentle On My Mind
TTITLE2=Witchita Linesman
TTITLE3=Galveston
TTITLE4=Country Boy (You've Got Your Feet In L.A.)
TTITLE5=By The Time I Get To Phoenix
TTITLE6=Dreams Of The Everyday Housewife
TTITLE7=Heartache No. 3
TTITLE8=Please Come To Boston
TTITLE9=Trials And Tribulations
TTITLE10=It's Only Make Believe
TTITLE11=Crying
TTITLE12=Blue Grass Medley
TTITLE13=Rolling In My Sweet Baby's Arms
TTITLE14=I'm So Lonesome I Could Cry
TTITLE15=Southern Nights
TTITLE16=Amazing Grace
TTITLE17=Try A Little Kindness
TTITLE18=In Your Loving Arms Again
TTITLE19=It's Your World Boys And Girls
EXTD=Track 21 - Mull Of Kintyre
EXTT0=
EXTT1=
EXTT2=
EXTT3=
EXTT4=
EXTT5=
EXTT6=
EXTT7=
EXTT8=
EXTT9=
EXTT10=
EXTT11=
EXTT12=
EXTT13=
EXTT14=
EXTT15=
EXTT16=
EXTT17=
EXTT18=
EXTT19=
PLAYORDER=
